<?xml version="1.0" encoding="utf-8"?>
<!-- Generator: Adobe Illustrator 23.1.0, SVG Export Plug-In . SVG Version: 6.00 Build 0)  -->
<svg version="1.1" id="Capa_1" xmlns="http://www.w3.org/2000/svg" xmlns:xlink="http://www.w3.org/1999/xlink" x="0px" y="0px"
	 viewBox="0 0 1000 233" style="enable-background:new 0 0 1000 233;" xml:space="preserve">
<style type="text/css">
	.st0{fill:#FFFFFF;}
	.st1{fill:url(#SVGID_1_);}
	.st2{fill:#00FF32;}
</style>
<g>
	<g>
		<path class="st0" d="M162.7,128.2v34.9h-23.2v-34.9c0-19.2-15.7-34.9-34.9-34.9c7.2,9.7,11.6,21.8,11.6,34.9v34.9H93v-34.9
			c0-10.3-4.5-19.6-11.6-26c-6.2-5.6-14.4-8.9-23.2-8.9l0,0c-19.2,0-34.9,15.7-34.9,34.9v34.9H0v-34.9C0,96,26,70.1,58.1,70.1
			c8.3,0,16.1,1.8,23.2,4.9c7.1-3.1,14.9-4.9,23.2-4.9C136.8,70.1,162.7,96,162.7,128.2z M348.8,81.7v81.4H372V81.7
			C364.4,83.2,356.5,83.2,348.8,81.7z M348.8,46.8v22.9c7.6,2,15.7,2,23.2,0V46.8H348.8z M534.9,70.1c-25.7,0-46.5,20.9-46.5,46.5
			v46.5h23.2v-46.5c0-12.8,10.4-23.2,23.2-23.2s23.2,10.4,23.2,23.2v46.5h23.2v-46.5C581.4,90.9,560.6,70.1,534.9,70.1z
			 M477.9,117.7c0,26.3-21.3,47.7-47.7,47.7c-26.3,0-47.7-21.3-47.7-47.7S403.8,70,430.2,70C456.5,70.1,477.9,91.4,477.9,117.7z
			 M454.6,117.7c0-13.5-10.9-24.4-24.4-24.4s-24.4,10.9-24.4,24.4s10.9,24.4,24.4,24.4S454.6,131.3,454.6,117.7z M302.3,46.8h-23.2
			c0,32.1,26,58.1,58.1,58.1V81.7C317.9,81.7,302.3,66,302.3,46.8z M58.1,99.1c-1.3,0-2.7,0.1-4,0.2c-4.9,8.5-7.6,18.3-7.6,28.8V163
			h23.2v-34.9c0-8.2,2.8-15.8,7.6-21.8C72.2,101.9,65.5,99.1,58.1,99.1z M310.6,136.7c-5.5-4.6-8.3-11.1-8.3-17.8v-18.5
			c-4.7-3.1-9-6.8-12.8-10.9c-4.3-4.7-7.8-10.1-10.4-16v45.4c0,13.3,5.7,26.5,16.6,35.7c2.1,1.8,4.4,3.3,6.6,4.6
			c10.8,6.3,23.4,7.7,34.9,4.7V139C328.9,143.8,318.3,143.1,310.6,136.7z M199.5,139.1c-10.2-10.2-18.7-20.6-25.4-30.5
			c-3,15.1,1.4,31.2,13,42.8s27.8,16,42.8,13C220.1,157.8,209.7,149.3,199.5,139.1z M265.8,133.8c5.9-16.8,2.3-36.3-11.1-49.7
			S221.7,66.9,205,73c-3.1,1.1-6,2.5-8.9,4.3c1.5,4.7,5.9,11.7,12.2,19.8c9.4-5.7,21.7-4.4,29.9,3.7c8.1,8.1,9.4,20.5,3.7,29.9
			c8.1,6.4,15.1,10.8,19.8,12.2C263.3,139.8,264.7,136.8,265.8,133.8z"/>
		
			<linearGradient id="SVGID_1_" gradientUnits="userSpaceOnUse" x1="381.55" y1="-13846.75" x2="211.2498" y2="-13676.4502" gradientTransform="matrix(1 0 0 -1 0 -13664)">
			<stop  offset="0.3" style="stop-color:#C6007E"/>
			<stop  offset="1" style="stop-color:#C6007E"/>
		</linearGradient>
		<path class="st1" d="M278.5,175.3c-9.5,9.5-43.1-8.5-74.8-40.3s-49.8-65.2-40.3-74.7c5.7-5.7,19.7-1.7,36.8,9.1
			c-4.5-1.7-7.9-1.9-9.6-0.1c-5.5,5.5,7.8,27.5,29.7,49.3s43.9,35.1,49.3,29.7c1.8-1.8,1.5-5.1-0.1-9.6
			C280.2,155.6,284.1,169.7,278.5,175.3z M430.2,106.1c-6.4,0-11.6,5.2-11.6,11.6s5.2,11.6,11.6,11.6s11.6-5.2,11.6-11.6
			C441.8,111.3,436.6,106.1,430.2,106.1z"/>
	</g>
	<path class="st0" d="M674.4,232.8L674.4,232.8c-1.3,0-2.4-1.1-2.4-2.4V2.6c0-1.3,1.1-2.4,2.4-2.4l0,0c1.3,0,2.4,1.1,2.4,2.4v228
		C676.8,231.7,675.7,232.8,674.4,232.8z"/>
	<g>
		<path class="st0" d="M909.4,157c-3.7,0-7.4-1.4-10.3-4.3L873.4,127c-5.7-5.7-5.7-14.9,0-20.6c5.7-5.7,14.9-5.7,20.6,0l25.7,25.7
			c5.7,5.7,5.7,14.9,0,20.6C916.8,155.5,913.1,157,909.4,157z"/>
		<path class="st0" d="M883.7,233c-15.7,0-30.9-3.1-45.3-9.1c-13.9-5.9-26.3-14.2-37-24.9c-10.7-10.7-19.1-23.1-24.9-37
			c-6.1-14.3-9.1-29.6-9.1-45.3s3.1-30.9,9.1-45.3c5.9-13.9,14.2-26.3,24.9-37c10.7-10.7,23.1-19.1,37-24.9
			c14.3-6.1,29.6-9.1,45.3-9.1s30.9,3.1,45.3,9.1c13.9,5.9,26.3,14.2,37,24.9s19.1,23.1,24.9,37c6.1,14.3,9.1,29.6,9.1,45.3
			s-3.1,30.9-9.1,45.3c-5.9,13.9-14.2,26.3-24.9,37c-10.7,10.7-23.1,19.1-37,24.9C914.6,230,899.4,233,883.7,233z M883.7,29.5
			c-23.3,0-45.2,9.1-61.7,25.5c-16.5,16.5-25.5,38.4-25.5,61.7s9.1,45.2,25.5,61.7c16.5,16.5,38.4,25.5,61.7,25.5
			c23.3,0,45.2-9.1,61.7-25.5c16.5-16.5,25.5-38.4,25.5-61.7s-9.1-45.2-25.5-61.7C928.9,38.6,907,29.5,883.7,29.5z"/>
		<path class="st2" d="M883.7,233c-15.1,0-29.8-2.9-43.8-8.5c-14.4-5.9-27.4-14.4-38.5-25.5c-11.1-11.1-19.7-24-25.5-38.5
			c-5.7-13.9-8.5-28.7-8.5-43.8s2.9-29.8,8.5-43.8c5.9-14.4,14.4-27.4,25.5-38.5c11.1-11.1,24-19.7,38.5-25.5
			c13.9-5.7,28.7-8.5,43.8-8.5s29.8,2.9,43.8,8.5c14.4,5.9,27.4,14.4,38.5,25.5c5.7,5.7,5.7,14.9,0,20.6c-5.7,5.7-14.9,5.7-20.6,0
			c-16.5-16.5-38.4-25.5-61.7-25.5c-23.3,0-45.2,9.1-61.7,25.5c-16.5,16.5-25.5,38.4-25.5,61.7s9.1,45.2,25.5,61.7
			c16.5,16.5,38.4,25.5,61.7,25.5c23.3,0,45.2-9.1,61.7-25.5c19-19,28.1-45.3,24.9-72c-0.9-8,4.8-15.2,12.7-16.1
			c8-0.9,15.2,4.8,16.1,12.7c2,17.1,0.2,34.7-5.3,51c-5.7,17.1-15.2,32.2-28,45c-11.1,11.1-24,19.7-38.5,25.5
			C913.5,230.2,898.8,233,883.7,233z"/>
		<path class="st2" d="M883.7,131.3c-3.7,0-7.4-1.4-10.3-4.3l-25.7-25.7c-5.7-5.7-5.7-14.9,0-20.6c5.7-5.7,14.9-5.7,20.6,0
			l15.4,15.4l61.7-61.7c5.7-5.7,14.9-5.7,20.6,0c5.7,5.7,5.7,14.9,0,20.6l-72,72C891.1,129.8,887.4,131.3,883.7,131.3z"/>
	</g>
</g>
</svg>
