<?xml version="1.0" encoding="utf-8"?>
<!-- Generator: Adobe Illustrator 23.1.0, SVG Export Plug-In . SVG Version: 6.00 Build 0)  -->
<svg version="1.1" id="listos" xmlns="http://www.w3.org/2000/svg" xmlns:xlink="http://www.w3.org/1999/xlink" x="0px" y="0px"
	 viewBox="0 0 100 100" style="enable-background:new 0 0 100 100;" xml:space="preserve">
<style type="text/css">
	.st0{fill:#FFFFFF;}
	.st1{fill:#C6007E;}
	.st2{fill:#01BEDB;}
	.st3{fill:#0047BB;}
	.st4{fill:#8B8C8C;}
</style>
<path class="st0" d="M84,68c-4.7,0-8.9,2-11.8,5.2l-33-17.5C39.7,53.9,40,52,40,50c0-2-0.3-3.9-0.8-5.7l33-17.5
	C75.1,30,79.3,32,84,32c8.8,0,16-7.2,16-16c0-8.8-7.2-16-16-16S68,7.2,68,16c0,1.3,0.2,2.5,0.4,3.7l-33,17.5
	C31.8,32.8,26.2,30,20,30C9,30,0,39,0,50c0,11.1,9,20,20,20c6.2,0,11.8-2.8,15.4-7.3l33,17.5C68.2,81.5,68,82.7,68,84
	c0,8.8,7.2,16,16,16s16-7.2,16-16C100,75.2,92.8,68,84,68z M84,8c4.4,0,8,3.6,8,8c0,4.4-3.6,8-8,8c-1.5,0-3-0.5-4.2-1.2
	C77.5,21.4,76,18.9,76,16c0-0.1,0-0.2,0-0.3C76.2,11.4,79.7,8,84,8z M20,62c-6.6,0-12-5.4-12-12s5.4-12,12-12c3.1,0,6,1.2,8.1,3.2
	c2,1.8,3.4,4.3,3.8,7.1C32,48.8,32,49.4,32,50c0,0.6,0,1.2-0.1,1.8c-0.4,2.8-1.8,5.3-3.8,7.1C26,60.8,23.1,62,20,62z M84,92
	c-4.3,0-7.8-3.4-8-7.7c0-0.1,0-0.2,0-0.3c0-2.9,1.5-5.4,3.8-6.8C81,76.4,82.5,76,84,76c4.4,0,8,3.6,8,8C92,88.4,88.4,92,84,92z"/>
</svg>
