<?xml version="1.0" encoding="utf-8"?>
<!-- Generator: Adobe Illustrator 23.1.0, SVG Export Plug-In . SVG Version: 6.00 Build 0)  -->
<svg version="1.1" id="listos" xmlns="http://www.w3.org/2000/svg" xmlns:xlink="http://www.w3.org/1999/xlink" x="0px" y="0px"
	 viewBox="0 0 100 100" style="enable-background:new 0 0 100 100;" xml:space="preserve">
<style type="text/css">
	.st0{fill:#FFFFFF;}
	.st1{fill:#C6007E;}
	.st2{fill:#01BEDB;}
	.st3{fill:#0047BB;}
	.st4{fill:#8B8C8C;}
</style>
<path class="st0" d="M60,72v18c0,0.8-0.1,1.5-0.3,2.3c-1,4.4-5,7.8-9.7,7.8H10c-4.8,0-8.7-3.3-9.7-7.8C0.1,91.5,0,90.8,0,90V10
	C0,4.5,4.5,0,10,0h40c4.8,0,8.9,3.4,9.8,8H10c-1.1,0-2,0.9-2,2v78h44V72H60z M80,36H40v8h40V36z M92,24H28v28v8.7l2.3-2.3l2.3-2.3
	H36h56V24 M100,16v48H36L20,80V52V16H100L100,16z"/>
</svg>
