<?xml version="1.0" encoding="utf-8"?>
<!-- Generator: Adobe Illustrator 23.1.0, SVG Export Plug-In . SVG Version: 6.00 Build 0)  -->
<svg version="1.1" id="listos" xmlns="http://www.w3.org/2000/svg" xmlns:xlink="http://www.w3.org/1999/xlink" x="0px" y="0px" viewBox="0 0 100 100" style="enable-background:new 0 0 100 100;" xml:space="preserve">
	<g>
		<path fill="#ffffff" d="M16,8c0,4.4-3.6,8-8,8s-8-3.6-8-8s3.6-8,8-8S16,3.6,16,8z M8,28c-4.4,0-8,3.6-8,8s3.6,8,8,8s8-3.6,8-8
		S12.4,28,8,28z M8,56c-4.4,0-8,3.6-8,8s3.6,8,8,8s8-3.6,8-8S12.4,56,8,56z M8,84c-4.4,0-8,3.6-8,8s3.6,8,8,8s8-3.6,8-8
		S12.4,84,8,84z M100,4H24v8h76V4z M92,32H24v8h68V32z M84,60H24v8h60V60z M76,88H24v8h52V88z" />
	</g>
</svg>