<?xml version="1.0" encoding="utf-8"?>
<!-- Generator: Adobe Illustrator 23.1.0, SVG Export Plug-In . SVG Version: 6.00 Build 0)  -->
<svg version="1.1" id="Capa_1" xmlns="http://www.w3.org/2000/svg" xmlns:xlink="http://www.w3.org/1999/xlink" x="0px"
	y="0px" viewBox="0 0 100 100" style="enable-background:new 0 0 100 100;" xml:space="preserve">

	<path fill="#ff0032"
		d="M50,60c-2.8,0-5-2.2-5-5V22c0-2.8,2.2-5,5-5c2.8,0,5,2.2,5,5v33C55,57.8,52.8,60,50,60z M55,78.5v-6
	c0-2.8-2.2-5-5-5c-2.8,0-5,2.2-5,5v6c0,2.8,2.2,5,5,5C52.8,83.5,55,81.3,55,78.5z M100,50c0-27.6-22.4-50-50-50S0,22.4,0,50
	s22.4,50,50,50S100,77.6,100,50z M90,50c0,22.1-17.9,40-40,40c-22.1,0-40-17.9-40-40s17.9-40,40-40C72.1,10,90,27.9,90,50z" />
</svg>