<?xml version="1.0" encoding="utf-8"?>
<!-- Generator: Adobe Illustrator 23.1.0, SVG Export Plug-In . SVG Version: 6.00 Build 0)  -->
<svg version="1.1" id="Capa_1" xmlns="http://www.w3.org/2000/svg" xmlns:xlink="http://www.w3.org/1999/xlink" x="0px"
	y="0px" viewBox="0 0 100 100" style="enable-background:new 0 0 100 100;" xml:space="preserve">
	<path fill="#FFFFFF" d="M59.9,50l25-25c2.7-2.7,2.7-7.2,0-9.9c-2.7-2.7-7.2-2.7-9.9,0L50,40.1L24.9,15c-2.7-2.7-7.2-2.7-9.9,0
	c-2.7,2.7-2.7,7.2,0,9.9l25,25l-25,25c-2.7,2.7-2.7,7.2,0,9.9c1.4,1.4,3.2,2,4.9,2s3.6-0.7,4.9-2L50,59.9l25.1,25.1
	c1.4,1.4,3.2,2,4.9,2s3.6-0.7,4.9-2c2.7-2.7,2.7-7.2,0-9.9L59.9,50z" />
</svg>