<?xml version="1.0" encoding="utf-8"?>
<!-- Generator: Adobe Illustrator 23.1.0, SVG Export Plug-In . SVG Version: 6.00 Build 0)  -->
<svg version="1.1" id="Capa_1" xmlns="http://www.w3.org/2000/svg" xmlns:xlink="http://www.w3.org/1999/xlink" x="0px"
	y="0px" viewBox="0 0 100 100" style="enable-background:new 0 0 100 100;" xml:space="preserve">

	<path fill="#00ff32" d="M81,26c-1.3,0-2.6-0.5-3.5-1.5l-8-8c-2-2-2-5.1,0-7.1c2-2,5.1-2,7.1,0l4.5,4.5L91.5,3.5c2-2,5.1-2,7.1,0
	c2,2,2,5.1,0,7.1l-14,14C83.6,25.5,82.3,26,81,26z M64.9,86.9c3.9-3.9,3.9-10.2,0-14.1c-3.9-3.9-10.2-3.9-14.1,0
	C47.3,76.1,42.8,78,38,78c-9.9,0-18-8.1-18-18s8.1-18,18-18c4.8,0,9.3,1.9,12.7,5.3c3.9,3.9,10.2,3.9,14.1,0s3.9-10.2,0-14.1
	C57.7,26,48.2,22,38,22C17,22,0,39,0,60s17,38,38,38C48.2,98,57.7,94,64.9,86.9z" />
</svg>