<?xml version="1.0" encoding="utf-8"?>
<!-- Generator: Adobe Illustrator 23.1.0, SVG Export Plug-In . SVG Version: 6.00 Build 0)  -->
<svg version="1.1" id="Capa_1" xmlns="http://www.w3.org/2000/svg" xmlns:xlink="http://www.w3.org/1999/xlink" x="0px"
	y="0px" viewBox="0 0 100 100" style="enable-background:new 0 0 100 100;" xml:space="preserve">
	>
	<path fill="#FFFFFF" d="M64.9,88.9c3.9-3.9,3.9-10.2,0-14.1c-3.9-3.9-10.2-3.9-14.1,0C47.3,78.1,42.8,80,38,80c-9.9,0-18-8.1-18-18
	s8.1-18,18-18c4.8,0,9.3,1.9,12.7,5.3c3.9,3.9,10.2,3.9,14.1,0s3.9-10.2,0-14.1C57.7,28,48.2,24,38,24C17,24,0,41,0,62s17,38,38,38
	C48.2,100,57.7,96,64.9,88.9z M100,7.4c0,4.1-3.4,7.5-7.5,7.5S85,11.6,85,7.4s3.4-7.5,7.5-7.5S100,3.3,100,7.4z M80,7.4
	c0,4.1-3.4,7.5-7.5,7.5S65,11.6,65,7.4s3.4-7.5,7.5-7.5S80,3.3,80,7.4z M60,7.4c0,4.1-3.4,7.5-7.5,7.5S45,11.6,45,7.4
	s3.4-7.5,7.5-7.5S60,3.3,60,7.4z" />
</svg>