<?xml version="1.0" encoding="utf-8"?>
<!-- Generator: Adobe Illustrator 23.1.0, SVG Export Plug-In . SVG Version: 6.00 Build 0)  -->
<svg version="1.1" id="Capa_1" xmlns="http://www.w3.org/2000/svg" xmlns:xlink="http://www.w3.org/1999/xlink" x="0px"
	y="0px" viewBox="0 0 100 100" style="enable-background:new 0 0 100 100;" xml:space="preserve">
	<path fill="#FFFFFF" d="M98.5,23.5c2,2,2,5.1,0,7.1c-1,1-2.3,1.5-3.5,1.5s-2.6-0.5-3.5-1.5L84,23.1l-7.5,7.5c-1,1-2.3,1.5-3.5,1.5
	s-2.6-0.5-3.5-1.5c-2-2-2-5.1,0-7.1l7.5-7.5l-7.5-7.5c-2-2-2-5.1,0-7.1c2-2,5.1-2,7.1,0L84,8.9l7.5-7.5c2-2,5.1-2,7.1,0
	c2,2,2,5.1,0,7.1L91.1,16L98.5,23.5z M64.9,88.9c3.9-3.9,3.9-10.2,0-14.1c-3.9-3.9-10.2-3.9-14.1,0C47.3,78.1,42.8,80,38,80
	c-9.9,0-18-8.1-18-18s8.1-18,18-18c4.8,0,9.3,1.9,12.7,5.3c3.9,3.9,10.2,3.9,14.1,0s3.9-10.2,0-14.1C57.7,28,48.2,24,38,24
	C17,24,0,41,0,62s17,38,38,38C48.2,100,57.7,96,64.9,88.9z" />
</svg>