<?xml version="1.0" encoding="utf-8"?>
<!-- Generator: Adobe Illustrator 23.1.0, SVG Export Plug-In . SVG Version: 6.00 Build 0)  -->
<svg version="1.1" id="Capa_1" xmlns="http://www.w3.org/2000/svg" xmlns:xlink="http://www.w3.org/1999/xlink" x="0px"
	y="0px" viewBox="0 0 100 100" style="enable-background:new 0 0 100 100;" xml:space="preserve">
	<style type="text/css">
		.st0 {
			fill: #00FF32;
		}
	</style>
	<path fill="#00FF32" d="M91.7,33.2L59.9,65l-5,4.9c-1.3,1.3-3,2.1-5,2.1s-3.7-0.8-5-2.1l-5-4.9L8.3,33.2c-2.7-2.7-2.7-7.2,0-9.9
	c2.7-2.7,7.2-2.7,9.9,0L43,48.1V7c0-3.9,3.1-7,7-7s7,3.1,7,7v41.1l24.8-24.8c2.7-2.7,7.2-2.7,9.9,0C94.5,26,94.5,30.4,91.7,33.2z
	 M100,93c0-3.9-3.1-7-7-7H7c-3.9,0-7,3.1-7,7s3.1,7,7,7h86C96.9,100,100,96.9,100,93z" />
</svg>