<?xml version="1.0" encoding="utf-8"?>
<!-- Generator: Adobe Illustrator 23.1.0, SVG Export Plug-In . SVG Version: 6.00 Build 0)  -->
<svg version="1.1" id="Capa_1" xmlns="http://www.w3.org/2000/svg" xmlns:xlink="http://www.w3.org/1999/xlink" x="0px"
	y="0px" viewBox="0 0 100 100" style="enable-background:new 0 0 100 100;" xml:space="preserve">

	<path fill="#FFFFFF" d="M76,62c0-5.5-4.5-10-10-10H45c-5.5,0-10,4.5-10,10s4.5,10,10,10h8c-3.2,4.8-8.7,8-15,8c-9.9,0-18-8.1-18-18
	s8.1-18,18-18c2.7,0,5.3,0.6,7.7,1.7c5,2.4,11,0.2,13.3-4.7c2.4-5,0.2-11-4.7-13.3C49.2,25.2,43.7,24,38,24C17,24,0,41,0,62
	s17,38,38,38S76,83,76,62z M100,7.4c0,4.1-3.4,7.5-7.5,7.5S85,11.6,85,7.4s3.4-7.5,7.5-7.5S100,3.3,100,7.4z M80,7.4
	c0,4.1-3.4,7.5-7.5,7.5S65,11.6,65,7.4s3.4-7.5,7.5-7.5S80,3.3,80,7.4z M60,7.4c0,4.1-3.4,7.5-7.5,7.5S45,11.6,45,7.4
	s3.4-7.5,7.5-7.5S60,3.3,60,7.4z" />
</svg>