<?xml version="1.0" encoding="utf-8"?>
<!-- Generator: Adobe Illustrator 25.4.1, SVG Export Plug-In . SVG Version: 6.00 Build 0)  -->
<svg version="1.1" id="Capa_1" xmlns="http://www.w3.org/2000/svg" xmlns:xlink="http://www.w3.org/1999/xlink" x="0px"
	y="0px" viewBox="0 0 512 512" style="enable-background:new 0 0 512 512;" xml:space="preserve">

	<path fill="#FFFFFF" d="M312.3,344.7c-8.2,0-16.4-3.1-22.6-9.3l-56.5-56.5c-12.5-12.5-12.5-32.8,0-45.3c12.5-12.5,32.8-12.5,45.3,0
	L335,290c12.5,12.5,12.5,32.8,0,45.3C328.7,341.5,320.5,344.7,312.3,344.7z" />
	<path fill="#FFFFFF" d="M255.8,512c-34.5,0-68.1-6.8-99.7-20.1C125.7,479,98.3,460.6,74.8,437s-42-50.8-54.9-81.4
	C6.6,324.1-0.2,290.5-0.2,256s6.8-68.1,20.1-99.7C32.8,125.9,51.2,98.5,74.8,75s50.8-42,81.4-54.9C187.7,6.8,221.3,0,255.8,0
	s68.1,6.8,99.7,20.1C385.9,33,413.3,51.4,436.8,75s42,50.8,54.9,81.4c13.3,31.6,20.1,65.1,20.1,99.7s-6.8,68.1-20.1,99.7
	c-12.9,30.4-31.3,57.8-54.9,81.4s-50.8,42-81.4,54.9C323.9,505.2,290.3,512,255.8,512z M255.8,64.2c-51.3,0-99.4,20-135.7,56.2
	c-36.2,36.2-56.2,84.4-56.2,135.7s20,99.4,56.2,135.7c36.2,36.2,84.4,56.2,135.7,56.2s99.4-20,135.7-56.2
	c36.2-36.2,56.2-84.4,56.2-135.7s-20-99.4-56.2-135.7C355.2,84.2,307.1,64.2,255.8,64.2z" />
	<path fill="#00ff32"
		d="M255.8,512c-33.3,0-65.6-6.3-96.2-18.7c-31.7-12.9-60.3-31.7-84.7-56.2s-43.4-52.8-56.2-84.7
	C6.3,321.8,0.1,289.4,0.1,256.3s6.3-65.6,18.7-96.2c12.9-31.7,31.7-60.3,56.2-84.7s52.8-43.4,84.7-56.2
	c30.7-12.4,63.1-18.7,96.2-18.7s65.6,6,96.2,18.4c31.7,12.9,60.3,31.7,84.7,56.2c12.5,12.5,12.5,32.8,0,45.3s-32.8,12.5-45.3,0
	C355.2,84.2,307,64.2,255.7,64.2s-99.4,20-135.7,56.2s-56.2,84.4-56.2,135.7s20,99.4,56.2,135.7c36.2,36.2,84.4,56.2,135.7,56.2
	s99.4-20,135.7-56.2c41.8-41.8,61.8-99.5,54.9-158.4c-2-17.5,10.5-33.4,28-35.6c17.5-2,33.4,10.5,35.6,28
	c4.5,37.6,0.4,76.4-11.6,112.1c-12.7,37.5-33.4,70.9-61.5,99c-24.4,24.4-52.8,43.4-84.7,56.2C321.4,505.6,289.1,512,255.8,512z" />
	<path fill="#00ff32" d="M255.8,288.1c-8.2,0-16.4-3.1-22.6-9.3l-56.5-56.5c-12.5-12.5-12.5-32.8,0-45.3s32.8-12.5,45.3,0l33.9,33.9
	L391.5,75.1c12.5-12.5,32.8-12.5,45.3,0c12.5,12.5,12.5,32.8,0,45.3L278.4,278.6C272.2,284.9,264,288.1,255.8,288.1z" />
</svg>