<?xml version="1.0" encoding="utf-8"?>
<!-- Generator: Adobe Illustrator 23.1.0, SVG Export Plug-In . SVG Version: 6.00 Build 0)  -->
<svg version="1.1" id="Capa_1" xmlns="http://www.w3.org/2000/svg" xmlns:xlink="http://www.w3.org/1999/xlink" x="0px"
	y="0px" viewBox="0 0 100 100" style="enable-background:new 0 0 100 100;" xml:space="preserve">
	<path fill="#00ff32" d="M81,28.1c-1.3,0-2.6-0.5-3.5-1.5l-8-8c-2-2-2-5.1,0-7.1c2-2,5.1-2,7.1,0L81,16L91.5,5.5c2-2,5.1-2,7.1,0
	c2,2,2,5.1,0,7.1l-14,14C83.6,27.6,82.3,28.1,81,28.1z M70,90V40.2c0-4-2.4-7.7-6.2-9.2c-3.7-1.5-8-0.7-10.9,2.2L35,51L17.1,33.1
	c-2.9-2.9-7.2-3.7-10.9-2.2C2.4,32.5,0,36.1,0,40.2V90c0,5.5,4.5,10,10,10s10-4.5,10-10V64.3l7.9,7.9c3.9,3.9,10.2,3.9,14.1,0
	l7.9-7.9V90c0,5.5,4.5,10,10,10S70,95.5,70,90z" />
</svg>