<?xml version="1.0" encoding="utf-8"?>
<!-- Generator: Adobe Illustrator 23.1.0, SVG Export Plug-In . SVG Version: 6.00 Build 0)  -->
<svg version="1.1" id="Capa_1" xmlns="http://www.w3.org/2000/svg" xmlns:xlink="http://www.w3.org/1999/xlink" x="0px"
	y="0px" viewBox="0 0 100 100" style="enable-background:new 0 0 100 100;" xml:space="preserve">

	<path fill="#FFFFFF"
		d="M70,90V40.2c0-4-2.4-7.7-6.2-9.2c-3.7-1.5-8-0.7-10.9,2.2L35,51L17.1,33.1c-2.9-2.9-7.2-3.7-10.9-2.2
	C2.4,32.5,0,36.1,0,40.2V90c0,5.5,4.5,10,10,10s10-4.5,10-10V64.3l7.9,7.9c3.9,3.9,10.2,3.9,14.1,0l7.9-7.9V90c0,5.5,4.5,10,10,10
	S70,95.5,70,90z M100,7.5c0,4.1-3.4,7.5-7.5,7.5S85,11.6,85,7.5S88.4,0,92.5,0S100,3.4,100,7.5z M80,7.5c0,4.1-3.4,7.5-7.5,7.5
	S65,11.6,65,7.5S68.4,0,72.5,0S80,3.4,80,7.5z M60,7.5c0,4.1-3.4,7.5-7.5,7.5S45,11.6,45,7.5S48.4,0,52.5,0S60,3.4,60,7.5z" />
</svg>