<?xml version="1.0" encoding="utf-8"?>
<!-- Generator: Adobe Illustrator 23.1.0, SVG Export Plug-In . SVG Version: 6.00 Build 0)  -->
<svg version="1.1" id="Capa_1" xmlns="http://www.w3.org/2000/svg" xmlns:xlink="http://www.w3.org/1999/xlink" x="0px"
	y="0px" viewBox="0 0 100 100" style="enable-background:new 0 0 100 100;" xml:space="preserve">

	<path fill="#FFFFFF" d="M98.5,23.5c2,2,2,5.1,0,7.1c-1,1-2.3,1.5-3.5,1.5s-2.6-0.5-3.5-1.5L84,23.1l-7.5,7.5c-1,1-2.3,1.5-3.5,1.5
	s-2.6-0.5-3.5-1.5c-2-2-2-5.1,0-7.1l7.5-7.5l-7.5-7.5c-2-2-2-5.1,0-7.1c2-2,5.1-2,7.1,0L84,8.9l7.5-7.5c2-2,5.1-2,7.1,0
	c2,2,2,5.1,0,7.1L91.1,16L98.5,23.5z M70,89.9V40.1c0-4-2.4-7.7-6.2-9.2c-3.7-1.5-8-0.7-10.9,2.2L35,51L17.1,33.1
	c-2.9-2.9-7.2-3.7-10.9-2.2C2.4,32.4,0,36.1,0,40.1v49.8c0,5.5,4.5,10,10,10s10-4.5,10-10V64.3l7.9,7.9c3.9,3.9,10.2,3.9,14.1,0
	l7.9-7.9v25.7c0,5.5,4.5,10,10,10S70,95.5,70,89.9z" />
</svg>