<svg viewBox="0 0 400 400" fill="none" xmlns="http://www.w3.org/2000/svg">
    <path
        d="M200 80C244.8 80 283.6 101.2 315.6 142.8C331.6 163.6 342.4 185.2 348.4 199.2C342 212.8 330.8 234 314.4 254.8C280.8 298 242.4 320 200 320C117.2 320 68.4 234.4 51.6 198.8C66.8 163.6 111.6 80 200 80ZM200 32C51.6 32 0 200 0 200C0 200 60.4 368 200 368C339.6 368 400 200 400 200C400 200 348.4 32 200 32ZM200 176C213.2 176 224 186.8 224 200C224 213.2 213.2 224 200 224C186.8 224 176 213.2 176 200C176 186.8 186.8 176 200 176ZM200 128C160.4 128 128 160.4 128 200C128 239.6 160.4 272 200 272C239.6 272 272 239.6 272 200C272 160.4 239.6 128 200 128Z"
        fill="#00FF32" />
</svg>