<?xml version="1.0" encoding="utf-8"?>
<!-- Generator: Adobe Illustrator 23.1.0, SVG Export Plug-In . SVG Version: 6.00 Build 0)  -->
<svg version="1.1" id="Capa_1" xmlns="http://www.w3.org/2000/svg" xmlns:xlink="http://www.w3.org/1999/xlink" x="0px" y="0px"
	 viewBox="0 0 100 100" style="enable-background:new 0 0 100 100;" xml:space="preserve">
<style type="text/css">
	.st0{fill:#FFFFFF;}
</style>
<path class="st0" d="M99.6,44.1c-0.5-3.8-3.9-6.6-7.8-6.1c-3.8,0.5-6.6,3.9-6.1,7.8c1.3,11-2.4,21.9-10.3,29.7
	C68.7,82.3,59.6,86,50,86s-18.7-3.7-25.5-10.5C17.7,68.7,14,59.6,14,50s3.7-18.7,10.5-25.5C31.3,17.7,40.4,14,50,14
	c7.2,0,14.2,2.1,20,6.1l-20,20l-5.9-5.9c-2.7-2.7-7.2-2.7-9.9,0c-2.7,2.7-2.7,7.2,0,9.9L45,55l10.9,10.9c1.4,1.4,3.2,2,4.9,2
	s3.6-0.7,4.9-2c2.7-2.7,2.7-7.2,0-9.9L59.9,50l25.5-25.5c0.7-0.7,1.2-1.5,1.5-2.3c0.3-0.8,0.5-1.7,0.5-2.6c0-1.8-0.7-3.6-2.1-5
	c0,0,0,0,0,0C75.9,5.2,63.3,0,50,0C36.6,0,24.1,5.2,14.6,14.6C5.2,24.1,0,36.6,0,50s5.2,25.9,14.6,35.4c9.4,9.4,22,14.6,35.4,14.6
	s25.9-5.2,35.4-14.6C96.3,74.5,101.5,59.4,99.6,44.1z"/>
</svg>
