<?xml version="1.0" encoding="utf-8"?>
<!-- Generator: Adobe Illustrator 23.1.0, SVG Export Plug-In . SVG Version: 6.00 Build 0)  -->
<svg version="1.1" id="Capa_1" xmlns="http://www.w3.org/2000/svg" xmlns:xlink="http://www.w3.org/1999/xlink" x="0px" y="0px"
	 viewBox="0 0 100 100" style="enable-background:new 0 0 100 100;" xml:space="preserve">
<style type="text/css">
	.st0{fill:#00ff32;}
</style>
<path class="st0" d="M85.3,85.4c-1,1-2.3,1.5-3.5,1.5c-1.3,0-2.6-0.5-3.5-1.5L55.7,62.7c2.7-2,5.1-4.4,7.1-7.1l22.6,22.6
	C87.3,80.2,87.3,83.4,85.3,85.4z M66.5,36.5c0-16.5-13.5-30-30-30s-30,13.5-30,30s13.5,30,30,30S66.5,53,66.5,36.5z M56.5,36.5
	c0,11-9,20-20,20s-20-9-20-20s9-20,20-20S56.5,25.5,56.5,36.5z"/>
</svg>
